<svg width="130" height="130" viewBox="0 0 130 130" fill="none" xmlns="http://www.w3.org/2000/svg">
<path d="M84.5921 21.6173V36.8458M84.5921 57.3858V72.6144M84.5921 93.2287V108.457M8.41211 99.1715C8.41211 101.634 9.39042 103.996 11.1318 105.738C12.8732 107.479 15.2351 108.457 17.6978 108.457H112.301C114.763 108.457 117.125 107.479 118.867 105.738C120.608 103.996 121.586 101.634 121.586 99.1715V82.0858C117.837 81.0649 114.528 78.839 112.169 75.7514C109.809 72.6638 108.531 68.8859 108.531 65.0001C108.531 61.1143 109.809 57.3364 112.169 54.2488C114.528 51.1612 117.837 48.9354 121.586 47.9144V30.8287C121.586 28.366 120.608 26.0041 118.867 24.2627C117.125 22.5213 114.763 21.543 112.301 21.543H17.6978C15.2351 21.543 12.8732 22.5213 11.1318 24.2627C9.39042 26.0041 8.41211 28.366 8.41211 30.8287V47.8773C12.1933 48.8741 15.5382 51.0944 17.9249 54.1919C20.3117 57.2894 21.606 61.0898 21.606 65.0001C21.606 68.9105 20.3117 72.7109 17.9249 75.8083C15.5382 78.9058 12.1933 81.1262 8.41211 82.123V99.1715Z" stroke="#5DB390" stroke-width="6" stroke-linecap="round" stroke-linejoin="round"/>
<path d="M40.5 46C38.5109 46 36.6032 46.7902 35.1967 48.1967C33.7902 49.6032 33 51.5109 33 53.5V83.5H40.5V53.5H48V79.75H55.5V53.5H63V83.5H70.5V53.5C70.5 51.5109 69.7098 49.6032 68.3033 48.1967C66.8968 46.7902 64.9891 46 63 46H40.5Z" fill="#5DB390"/>
</svg>
